<svg width="24" height="25" viewBox="0 0 24 25" fill="none" xmlns="../../www.w3.org/2000/svg.html">
<path d="M11.999 8.00977C11.861 8.00977 11.749 8.12177 11.75 8.25977C11.75 8.39777 11.862 8.50977 12 8.50977C12.138 8.50977 12.25 8.39777 12.25 8.25977C12.25 8.12177 12.138 8.00977 11.999 8.00977" stroke="#C9C9C9" stroke-width="1.5" stroke-linecap="round" stroke-linejoin="round"/>
<path fill-rule="evenodd" clip-rule="evenodd" d="M12 21.0098V21.0098C7.029 21.0098 3 16.9808 3 12.0098V12.0098C3 7.03877 7.029 3.00977 12 3.00977V3.00977C16.971 3.00977 21 7.03877 21 12.0098V12.0098C21 16.9808 16.971 21.0098 12 21.0098Z" stroke="#C9C9C9" stroke-width="1.5" stroke-linecap="round" stroke-linejoin="round"/>
<path d="M12 12.0098V17.0098" stroke="#C9C9C9" stroke-width="1.5" stroke-linecap="round" stroke-linejoin="round"/>
</svg>
