<svg width="83" height="75" viewBox="0 0 83 75" fill="none" xmlns="../../www.w3.org/2000/svg.html">
<path d="M49.4309 28.4801V23.944V10.3359C49.4309 8.33172 47.8062 6.70703 45.8021 6.70703H9.51361C7.50946 6.70703 5.88477 8.33172 5.88477 10.3359V61.1397C5.88477 63.1439 7.50946 64.7686 9.51361 64.7686H37.0732" stroke="#8D8AFF" stroke-width="2.94231" stroke-linecap="round" stroke-linejoin="round"/>
<path fill-rule="evenodd" clip-rule="evenodd" d="M20.4004 20.769C20.1498 20.769 19.9468 20.9721 19.9468 21.2226C19.9468 21.4731 20.1498 21.6762 20.4004 21.6762C20.6509 21.6762 20.854 21.4731 20.854 21.2226C20.854 20.9721 20.6509 20.769 20.4004 20.769Z" fill="#8D8AFF"/>
<path d="M20.4004 20.769C20.1498 20.769 19.9468 20.9721 19.9468 21.2226C19.9468 21.4731 20.1498 21.6762 20.4004 21.6762C20.6509 21.6762 20.854 21.4731 20.854 21.2226C20.854 20.9721 20.6509 20.769 20.4004 20.769" stroke="#8D8AFF" stroke-width="2.94231" stroke-linecap="round" stroke-linejoin="round"/>
<path fill-rule="evenodd" clip-rule="evenodd" d="M34.916 20.769C34.6655 20.769 34.4624 20.9721 34.4624 21.2226C34.4624 21.4731 34.6655 21.6762 34.916 21.6762C35.1665 21.6762 35.3696 21.4731 35.3696 21.2226C35.3696 20.9721 35.1665 20.769 34.916 20.769Z" fill="#8D8AFF"/>
<path d="M34.916 20.769C34.6655 20.769 34.4624 20.9721 34.4624 21.2226C34.4624 21.4731 34.6655 21.6762 34.916 21.6762C35.1665 21.6762 35.3696 21.4731 35.3696 21.2226C35.3696 20.9721 35.1665 20.769 34.916 20.769" stroke="#8D8AFF" stroke-width="2.94231" stroke-linecap="round" stroke-linejoin="round"/>
<path fill-rule="evenodd" clip-rule="evenodd" d="M20.4004 35.2846C20.1498 35.2846 19.9468 35.4877 19.9468 35.7383C19.9468 35.9888 20.1498 36.1919 20.4004 36.1919C20.6509 36.1919 20.854 35.9888 20.854 35.7383C20.854 35.4877 20.6509 35.2846 20.4004 35.2846Z" fill="#8D8AFF"/>
<path d="M20.4004 35.2846C20.1498 35.2846 19.9468 35.4877 19.9468 35.7383C19.9468 35.9888 20.1498 36.1919 20.4004 36.1919C20.6509 36.1919 20.854 35.9888 20.854 35.7383C20.854 35.4877 20.6509 35.2846 20.4004 35.2846" stroke="#8D8AFF" stroke-width="2.94231" stroke-linecap="round" stroke-linejoin="round"/>
<path fill-rule="evenodd" clip-rule="evenodd" d="M34.916 35.2846C34.6655 35.2846 34.4624 35.4877 34.4624 35.7383C34.4624 35.9888 34.6655 36.1919 34.916 36.1919C35.1665 36.1919 35.3696 35.9888 35.3696 35.7383C35.3696 35.4877 35.1665 35.2846 34.916 35.2846Z" fill="#8D8AFF"/>
<path d="M34.916 35.2846C34.6655 35.2846 34.4624 35.4877 34.4624 35.7383C34.4624 35.9888 34.6655 36.1919 34.916 36.1919C35.1665 36.1919 35.3696 35.9888 35.3696 35.7383C35.3696 35.4877 35.1665 35.2846 34.916 35.2846" stroke="#8D8AFF" stroke-width="2.94231" stroke-linecap="round" stroke-linejoin="round"/>
<path fill-rule="evenodd" clip-rule="evenodd" d="M20.4004 49.8003C20.1498 49.8003 19.9468 50.0034 19.9468 50.2539C19.9468 50.5044 20.1498 50.7075 20.4004 50.7075C20.6509 50.7075 20.854 50.5044 20.854 50.2539C20.854 50.0034 20.6509 49.8003 20.4004 49.8003Z" fill="#8D8AFF"/>
<path d="M20.4004 49.8003C20.1498 49.8003 19.9468 50.0034 19.9468 50.2539C19.9468 50.5044 20.1498 50.7075 20.4004 50.7075C20.6509 50.7075 20.854 50.5044 20.854 50.2539C20.854 50.0034 20.6509 49.8003 20.4004 49.8003" stroke="#8D8AFF" stroke-width="2.94231" stroke-linecap="round" stroke-linejoin="round"/>
<path fill-rule="evenodd" clip-rule="evenodd" d="M34.916 49.8003C34.6655 49.8003 34.4624 50.0034 34.4624 50.2539C34.4624 50.5044 34.6655 50.7075 34.916 50.7075C35.1665 50.7075 35.3696 50.5044 35.3696 50.2539C35.3696 50.0034 35.1665 49.8003 34.916 49.8003Z" fill="#8D8AFF"/>
<path d="M34.916 49.8003C34.6655 49.8003 34.4624 50.0034 34.4624 50.2539C34.4624 50.5044 34.6655 50.7075 34.916 50.7075C35.1665 50.7075 35.3696 50.5044 35.3696 50.2539C35.3696 50.0034 35.1665 49.8003 34.916 49.8003" stroke="#8D8AFF" stroke-width="2.94231" stroke-linecap="round" stroke-linejoin="round"/>
<path d="M46.1934 52.8529V44.8105H62.278V52.8529" stroke="white" stroke-width="2.94231" stroke-linecap="round" stroke-linejoin="round"/>
<path d="M62.2791 44.8109H64.2897V36.7686H48.2051V44.8109" stroke="white" stroke-width="2.94231" stroke-linecap="round" stroke-linejoin="round"/>
<path d="M69.9771 55.2091C73.1178 58.3498 73.1178 63.4419 69.9771 66.5826C66.8364 69.7233 61.7443 69.7233 58.6036 66.5826C55.4629 63.4419 55.4629 58.3498 58.6036 55.2091C61.7443 52.0683 66.8364 52.0683 69.9771 55.2091" stroke="white" stroke-width="2.94231" stroke-linecap="round" stroke-linejoin="round"/>
<path d="M46.1934 60.8955V68.9378H64.2886" stroke="white" stroke-width="2.94231" stroke-linecap="round" stroke-linejoin="round"/>
<path d="M64.2894 52.8535H44.1836V60.8958H56.2471" stroke="white" stroke-width="2.94231" stroke-linecap="round" stroke-linejoin="round"/>
</svg>
