<svg width="32" height="31" viewBox="0 0 32 31" fill="none" xmlns="../../www.w3.org/2000/svg.html">
<path fill-rule="evenodd" clip-rule="evenodd" d="M7.98062 6.48633H10.5591C11.2711 6.48633 11.8483 7.06353 11.8483 7.77554V10.354H6.69141V7.77554C6.69141 7.06353 7.26861 6.48633 7.98062 6.48633Z" stroke="black" stroke-width="1.20814" stroke-linecap="round" stroke-linejoin="round"/>
<path d="M9.26375 3.9082V6.48663" stroke="black" stroke-width="1.20814" stroke-linecap="round" stroke-linejoin="round"/>
<path d="M4.11328 27.1123V11.6418C4.11328 10.9297 4.69048 10.3525 5.4025 10.3525H13.1378C13.8498 10.3525 14.427 10.9297 14.427 11.6418V15.5094" stroke="black" stroke-width="1.20814" stroke-linecap="round" stroke-linejoin="round"/>
<path d="M18.293 15.5076V6.48307C18.2931 6.06035 18.5005 5.66457 18.848 5.42383C19.1955 5.18309 19.6389 5.12799 20.0347 5.27637L26.4808 7.69365C26.9843 7.8824 27.3178 8.36388 27.3175 8.90164V27.1105" stroke="black" stroke-width="1.20814" stroke-linecap="round" stroke-linejoin="round"/>
<path fill-rule="evenodd" clip-rule="evenodd" d="M10.5586 27.1137V16.8C10.5586 16.0879 11.1358 15.5107 11.8478 15.5107H19.5831C20.2951 15.5107 20.8723 16.0879 20.8723 16.8V27.1137" fill="#CDE06A"/>
<path d="M10.5586 27.1137V16.8C10.5586 16.0879 11.1358 15.5107 11.8478 15.5107H19.5831C20.2951 15.5107 20.8723 16.0879 20.8723 16.8V27.1137" stroke="#CDE06A" stroke-width="1.20814" stroke-linecap="round" stroke-linejoin="round"/>
<path d="M13.7812 22.8575H17.6489" stroke="black" stroke-width="1.20814" stroke-linecap="round" stroke-linejoin="round"/>
<path d="M13.7812 19.377H17.6489" stroke="black" stroke-width="1.20814" stroke-linecap="round" stroke-linejoin="round"/>
<path d="M27.3134 27.1073H4.11719" stroke="black" stroke-width="1.20814" stroke-linecap="round" stroke-linejoin="round"/>
</svg>
