<svg width="24" height="25" viewBox="0 0 24 25" fill="none" xmlns="../../www.w3.org/2000/svg.html">
<path fill-rule="evenodd" clip-rule="evenodd" d="M7.44798 21.3405C7.04376 21.5573 6.55132 21.5248 6.17907 21.2568C5.80682 20.9888 5.61984 20.532 5.69725 20.0799L6.56561 15.0548L2.88808 11.4944C2.56306 11.1747 2.44711 10.6986 2.58878 10.2653C2.73045 9.83203 3.10529 9.51637 3.55636 9.4505L8.64047 8.7172L10.9114 4.14129C11.1166 3.73148 11.5356 3.47266 11.9939 3.47266C12.4522 3.47266 12.8712 3.73148 13.0763 4.14129L15.3473 8.7172L20.4314 9.4505C20.8825 9.51637 21.2573 9.83203 21.399 10.2653C21.5406 10.6986 21.4247 11.1747 21.0997 11.4944L17.4201 15.0528L18.2885 20.0779C18.3668 20.5304 18.1802 20.9879 17.8078 21.2565C17.4353 21.525 16.9423 21.5576 16.5378 21.3405L11.9919 18.9705L7.44798 21.3405Z" fill="white"/>
</svg>
