<svg width="24" height="24" viewBox="0 0 24 24" fill="none" xmlns="../../www.w3.org/2000/svg.html">
<path fill-rule="evenodd" clip-rule="evenodd" d="M7.44798 20.8639C7.04376 21.0807 6.55132 21.0482 6.17907 20.7802C5.80682 20.5122 5.61984 20.0555 5.69725 19.6034L6.56561 14.5783L2.88808 11.0178C2.56306 10.6982 2.44711 10.222 2.58878 9.78875C2.73045 9.35547 3.10529 9.03981 3.55636 8.97394L8.64047 8.24064L10.9114 3.66473C11.1166 3.25491 11.5356 2.99609 11.9939 2.99609C12.4522 2.99609 12.8712 3.25491 13.0763 3.66473L15.3473 8.24064L20.4314 8.97394C20.8825 9.03981 21.2573 9.35547 21.399 9.78875C21.5406 10.222 21.4247 10.6982 21.0997 11.0178L17.4201 14.5763L18.2885 19.6014C18.3668 20.0538 18.1802 20.5113 17.8078 20.7799C17.4353 21.0485 16.9423 21.0811 16.5378 20.8639L11.9919 18.4939L7.44798 20.8639Z" fill="black"/>
</svg>
