<svg width="33" height="32" viewBox="0 0 33 32" fill="none" xmlns="../../www.w3.org/2000/svg.html">
<circle cx="16.7372" cy="16.0302" r="15.7958" fill="#CDE06A"/>
<path d="M24.4173 23.5853L24.1991 24.8694C22.3247 26.396 19.9081 27.3204 17.2712 27.3141C12.8383 27.3058 8.59814 24.6853 6.96094 19.9275L15.848 18.773L23.9407 22.6379C24.2902 22.824 24.483 23.2025 24.4173 23.5853ZM26.1307 22.8135C26.1307 22.8135 26.1667 22.4016 26.1858 22.1945C26.2155 21.8557 26.0227 21.5357 25.7029 21.3914L17.5127 17.7776L20.2766 15.6193C20.5414 15.3286 20.9544 15.2115 21.3378 15.3181C23.3477 15.8786 25.3556 16.4391 27.3634 16.9996C27.7722 17.1125 28.0602 17.5287 28.0179 17.9386C27.823 19.6702 27.2067 21.2764 26.1307 22.8135Z" fill="black"/>
<path d="M12.8387 10.8008H10.1328V12.9333H12.8387V15.8184H15.1325V12.9333H17.8563V10.8008H15.1325V7.93359H12.8387V10.8008Z" fill="black"/>
</svg>
